# xmcd
#
# Track frame offsets:
#	150
#	11869
#	22178
#	35276
#	49068
#	64383
#	75491
#	85408
#	98683
#	110570
#	123018
#	133469
#	143157
#	154717
#	165223
#	176084
#	185720
#	195621
#	210449
#	225471
#	238187
#	248388
#
# Disc length: 3488
#
# Revision: 1
# Processed by: cddbd v1.5.1PL0 Copyright (c) Steve Scherf et al.
# Submitted via: NeoAudio 9.9.9
# Normalized: r0:TDELIM( - )
#
DISCID=260d9e16
DTITLE=Various Artist - Country Triple Treasures - cd1 - Walking After Midnight
DYEAR=1900
DGENRE=Country
TTITLE0=Ptsy Cline - Walking after midnight
TTITLE1=Roger Miller - Engine no. 9
TTITLE2=Johnny Paycheck - Take this job and shove it
TTITLE3=Porter Wagoner - Green green grass of home
TTITLE4=Billie Jo Spears - Blanket on the ground
TTITLE5=Jerry Wallace - Primrose lane
TTITLE6=Dave Dudley - Cowboy boots
TTITLE7=Lynn Anderson - Rose garden
TTITLE8=Boxcar Willie - SIx days on the road
TTITLE9=Charlie Rich - Behind closed doors
TTITLE10=Faron Young - Hellos walls
TTITLE11=Charley Pride - Kiss an angel goodmorning
TTITLE12=Freddy Fender - Before the next teardrop falls
TTITLE13=Ferlin Husky - Wings of a dove
TTITLE14=Hank Locklin - Please help me I'm falling
TTITLE15=Donna Fargo - Sticks and stone
TTITLE16=Dolly Parton - Release me
TTITLE17=Glen Campbell - Rhinestone cowboy
TTITLE18=Jeannie C. Riley - Harper Valley P.T.A
TTITLE19=Susan Raye - L.A. International Airport
TTITLE20=Willie Nelson - On the road again
TTITLE21=Bobby Bare - Detroit City
EXTD=
EXTT0=
EXTT1=
EXTT2=
EXTT3=
EXTT4=
EXTT5=
EXTT6=
EXTT7=
EXTT8=
EXTT9=
EXTT10=
EXTT11=
EXTT12=
EXTT13=
EXTT14=
EXTT15=
EXTT16=
EXTT17=
EXTT18=
EXTT19=
EXTT20=
EXTT21=
PLAYORDER=
